<?xml version="1.0" encoding="iso-8859-1"?>
<!-- Generator: Adobe Illustrator 19.0.0, SVG Export Plug-In . SVG Version: 6.00 Build 0)  -->
<svg version="1.1" id="Layer_1" xmlns="http://www.w3.org/2000/svg" xmlns:xlink="http://www.w3.org/1999/xlink" x="0px" y="0px"
	 viewBox="0 0 329.994 329.994" style="enable-background:new 0 0 329.994 329.994;" xml:space="preserve">
<g id="XMLID_237_">
	<path id="XMLID_238_" d="M304.382,284.394c-7.35,7.352-10.954,10.603-19.385,10.603c-0.001,0-0.003,0-0.005,0
		c-8.43,0.001-12.037-3.25-19.392-10.605c-8.177-8.176-19.374-19.372-40.55-19.391c-0.02,0-0.037-0.003-0.057-0.003
		c-21.215,0.001-32.424,11.21-40.608,19.395c-7.353,7.353-10.959,10.604-19.388,10.604c-0.001,0-0.003,0-0.003,0
		c-8.43,0.001-12.037-3.25-19.391-10.604c-8.176-8.176-19.373-19.37-40.546-19.392c-0.02,0-0.039-0.003-0.059-0.003
		c-21.214,0.001-32.423,11.21-40.607,19.395c-7.354,7.353-10.96,10.604-19.391,10.604c-0.003,0-0.005,0-0.007,0
		c-8.426,0-12.033-3.251-19.387-10.604l-0.003-0.003c-5.858-5.857-15.354-5.854-21.212,0.003
		c-5.857,5.858-5.856,15.357,0.003,21.215c8.184,8.183,19.392,19.39,40.596,19.39c0.005,0,0.009,0,0.014,0
		c21.208,0,32.417-11.208,40.601-19.392c7.347-7.347,10.956-10.599,19.368-10.607c0.008,0,0.017,0.001,0.025,0.001
		c8.432,0,12.038,3.251,19.393,10.606c8.184,8.184,19.39,19.391,40.598,19.391c0.004,0,0.008,0,0.012,0
		c21.207,0,32.416-11.208,40.6-19.391c7.348-7.348,10.955-10.6,19.37-10.607c0.009,0,0.018,0.001,0.026,0.001
		c8.431,0,12.037,3.251,19.393,10.606c8.184,8.184,19.391,19.391,40.598,19.391c0.003-0.001,0.009,0,0.014,0
		c21.208-0.001,32.417-11.209,40.599-19.393c5.857-5.859,5.855-15.356-0.003-21.213
		C319.737,278.534,310.242,278.536,304.382,284.394z"/>
	<path id="XMLID_239_" d="M304.382,224.394c-7.35,7.352-10.954,10.603-19.385,10.603c-0.001,0-0.003,0-0.005,0
		c-8.43,0.001-12.037-3.251-19.392-10.605c-7.515-7.515-17.587-17.573-35.607-19.168V69.997c0-19.299,15.701-35,35-35
		c19.299,0,35,15.701,35,35c0,8.284,6.716,15,15,15c8.284,0,15-6.716,15-15c0-35.841-29.159-65-65-65
		c-20.085,0-38.067,9.16-50,23.518c-11.933-14.358-29.916-23.518-50-23.518c-35.841,0-65,29.159-65,65v135.226
		c-18.017,1.598-28.087,11.655-35.602,19.17c-7.354,7.353-10.96,10.605-19.391,10.605c-0.003,0-0.005,0-0.007,0
		c-8.426,0-12.033-3.251-19.387-10.605l-0.003-0.003c-5.858-5.857-15.354-5.854-21.212,0.003
		c-5.857,5.858-5.856,15.357,0.003,21.215c8.184,8.183,19.392,19.39,40.596,19.39c0.005,0,0.009,0,0.014,0
		c21.208,0,32.417-11.208,40.601-19.392c7.347-7.347,10.956-10.599,19.368-10.607c0.008,0,0.017,0.001,0.025,0.001
		c8.432,0,12.038,3.251,19.393,10.606c8.184,8.184,19.39,19.391,40.598,19.391c0.004,0,0.008,0,0.012,0
		c21.207,0,32.416-11.208,40.6-19.391c7.348-7.348,10.955-10.6,19.37-10.607c0.009,0,0.018,0.001,0.026,0.001
		c8.431,0,12.037,3.251,19.393,10.606c8.184,8.184,19.391,19.391,40.598,19.391c0.003-0.001,0.009,0,0.014,0
		c21.208-0.001,32.417-11.209,40.599-19.393c5.857-5.859,5.855-15.356-0.003-21.213
		C319.737,218.535,310.242,218.536,304.382,224.394z M129.994,124.997h70v30h-70V124.997z M164.994,34.997c19.299,0,35,15.701,35,35
		v25h-70v-25C129.994,50.698,145.695,34.997,164.994,34.997z M164.998,234.997c-0.001,0-0.003,0-0.003,0
		c-8.43,0.001-12.037-3.251-19.391-10.605c-4.132-4.132-9.038-9.033-15.61-12.875v-26.52h70v26.52
		c-6.571,3.842-11.477,8.743-15.608,12.875C177.034,231.746,173.427,234.997,164.998,234.997z"/>
</g>
<g>
</g>
<g>
</g>
<g>
</g>
<g>
</g>
<g>
</g>
<g>
</g>
<g>
</g>
<g>
</g>
<g>
</g>
<g>
</g>
<g>
</g>
<g>
</g>
<g>
</g>
<g>
</g>
<g>
</g>
</svg>
