<svg viewBox="0 0 960 960" xmlns="http://www.w3.org/2000/svg" fill="none" stroke="currentColor" stroke-width="20">
	<!-- Water waves -->
	<path d="M110 780c48 48 114 48 152 0s114-48 152 0 114 48 152 0 114-48 152 0 114 48 152 0" stroke-width="40" stroke-linecap="round"/>
	<path d="M110 900c48 48 114 48 152 0s114-48 152 0 114 48 152 0 114-48 152 0 114 48 152 0" stroke-width="40" stroke-linecap="round"/>

	<!-- Bigger Heat Pump, centered -->
	<rect x="190" y="192" width="580" height="350" rx="28" fill="none" stroke="black" stroke-width="40"/>

	<!-- Fan shifted to the left -->
	<circle cx="360" cy="366" r="100" fill="black" />

	<!-- Feet -->
	<line x1="288" y1="620" x2="288" y2="560" stroke-width="40"/>
	<line x1="672" y1="620" x2="672" y2="560" stroke-width="40"/>
</svg>
