<svg viewBox="0 0 960 960" xmlns="http://www.w3.org/2000/svg" fill="none" stroke="currentColor" stroke-width="80">
	<!-- Water waves -->
	<path d="M110 650c48 48 114 48 152 0s114-48 152 0 114 48 152 0 114-48 152 0 114 48 152 0" stroke-linecap="round"/>
	<path d="M110 800c48 48 114 48 152 0s114-48 152 0 114 48 152 0 114-48 152 0 114 48 152 0" stroke-linecap="round"/>
	<!-- Heat lines -->
	<path d="M200 300c10 -30 10 -70 0 -100s-10 -70 0 -100" stroke-linecap="round"/>
	<path d="M400 400c10 -30 10 -70 0 -100s-10 -70 0 -100" stroke-linecap="round"/>
	<path d="M600 300c10 -30 10 -70 0 -100s-10 -70 0 -100" stroke-linecap="round"/>
	<path d="M800 400c10 -30 10 -70 0 -100s-10 -70 0 -100" stroke-linecap="round"/>

</svg>
