<?xml version="1.0" encoding="UTF-8"?>
<svg width="64px" height="64px" viewBox="0 0 64 64" version="1.1" xmlns="http://www.w3.org/2000/svg" xmlns:xlink="http://www.w3.org/1999/xlink">
    <title>volume_mute</title>
    <g id="volume_mute" stroke="none" stroke-width="1" fill="none" fill-rule="evenodd">
        <path d="M8.58578644,8.58578644 C9.36683502,7.80473785 10.633165,7.80473785 11.4142136,8.58578644 L55.4142136,52.5857864 C56.1952621,53.366835 56.1952621,54.633165 55.4142136,55.4142136 C54.633165,56.1952621 53.366835,56.1952621 52.5857864,55.4142136 L8.58578644,11.4142136 C7.80473785,10.633165 7.80473785,9.36683502 8.58578644,8.58578644 Z M18.1126123,25.1829309 L41.995,49.066 L41.9920548,49.1440617 C41.9551177,49.5649387 41.7903779,49.9653985 41.5185132,50.2884989 C40.7996689,51.1428172 39.5370689,51.2417546 38.6984173,50.5094818 L29.1366499,42.0103319 C28.4044498,41.3595025 27.4588699,41 26.4792293,41 L21,41 C19.3431458,41 18,39.6568542 18,38 L18,26 C18,25.7167616 18.0392517,25.442691 18.1126123,25.1829309 Z M40,13 C41.1045695,13 42,13.9121577 42,15.0373613 L42,34.929 L29.0963047,22.0250448 L38.6984173,13.4904813 C39.0609035,13.1739747 39.5225775,13 40,13 Z" id="Shape" fill="#000000"></path>
    </g>
</svg>